<?xml version="1.0" encoding="utf-8"?>
<!-- Generator: Adobe Illustrator 28.0.0, SVG Export Plug-In . SVG Version: 6.00 Build 0)  -->
<svg version="1.1" id="Laag_1" xmlns="http://www.w3.org/2000/svg" xmlns:xlink="http://www.w3.org/1999/xlink" x="0px" y="0px"
	 viewBox="0 0 100.1 43.7" style="enable-background:new 0 0 100.1 43.7;" xml:space="preserve">
<style type="text/css">
	.st0{fill:#4178D3;}
</style>
<path class="st0" d="M23.2,24.9c-4.1,0-7.5,3.4-7.5,7.5s3.4,7.5,7.5,7.5s7.5-3.4,7.5-7.5S27.3,24.9,23.2,24.9z M23.2,36.9
	c-2.5,0-4.5-2-4.5-4.5s2-4.5,4.5-4.5s4.5,2,4.5,4.5S25.6,36.9,23.2,36.9z"/>
<path class="st0" d="M79.2,24.9c-4.1,0-7.5,3.4-7.5,7.5s3.4,7.5,7.5,7.5s7.5-3.4,7.5-7.5S83.3,24.9,79.2,24.9z M79.2,36.9
	c-2.5,0-4.5-2-4.5-4.5s2-4.5,4.5-4.5s4.5,2,4.5,4.5S81.6,36.9,79.2,36.9z"/>
<path class="st0" d="M32.7,35.4c-0.1,0.3-0.2,0.7-0.4,1l37.3-1.1c-0.1-0.3-0.2-0.7-0.2-1L32.7,35.4z"/>
<path class="st0" d="M90.2,23.7c0-2.6-1-6.1-2.6-7.8c-0.5-0.5-1-0.9-1.5-1c-1.5-3.2-3.3-5-4.6-6.1c0.1-0.2,0.2-0.5,0.2-0.7
	c0-0.7-0.6-1.4-1.3-1.4C73.5,5.8,44.5,6.5,42,7.3c-2.8,1-8.6,7.4-10.3,9.3c-11.1,0.5-18.1,2.5-20.9,5.8c-0.9,1.2-1.4,2.5-1.2,3.8
	c-0.1,0.1-0.4,0.4-0.9,0.8c-0.4,0.2-0.6,0.6-0.7,1c-0.1,0.6,0.2,3.5,1.1,6.2c0.2,0.6,0.8,1,1.4,1l0,0l2.8-0.1
	c-0.1-0.5-0.2-1-0.3-1.5c0-0.3,0-0.6,0-0.9c0-0.2,0-0.4,0-0.6c0.3-5.3,4.6-9.4,10-9.4c5.1,0,9.4,3.9,9.9,8.9c0,0.4,0.1,0.8,0.1,1.1
	c0,0.1,0,0.2,0,0.4c0,0.5-0.1,1-0.2,1.5l36.2-1c0-0.3,0-0.5,0-0.8c0-0.2,0-0.5,0-0.7c0-0.5,0.1-1,0.2-1.5c1-4.5,5-7.8,9.8-7.8
	c4.6,0,8.4,3.1,9.6,7.3c0.1,0.5,0.2,1,0.3,1.5C89,32,89,32.4,89,32.9c0,0.1,0,0.2,0,0.2h1c0.7,0,1.3-0.5,1.4-1.2
	C92.5,27.2,92.5,25.1,90.2,23.7z M87.3,17c0.6,0.5,1.1,1.7,1.3,2.7c0.3,1,0.5,2.5,0,2.9c-0.1,0.1-0.2,0.1-0.3,0.1
	c-0.4,0-0.8-0.3-1-0.9c-0.3-0.8-0.9-3.5-1.2-4.4c-0.1-0.5,0.1-0.7,0.3-0.7C86.7,16.8,87,16.9,87.3,17z M61.2,9.1l-0.3,7.7l-23.6,1
	L44,9.7L44.6,9l16.7-0.2L61.2,9.1z M62.4,20.1c0,0.6-0.4,1-1,1l-3.9,0.2l0,0c-0.5,0-1-0.4-1-1s0.4-1,1-1l3.9-0.2
	C61.9,19.1,62.4,19.5,62.4,20.1z M14.6,23.5c-0.6,0.6-1.2,1.1-1.8,1.5s-1.2,0.5-1.4,0.2c-0.1-0.1-0.1-0.1-0.1-0.2
	c-0.2-0.7,0.4-2.2,1.6-3.4c1.3-1.4,2.7-2,3.2-1.5c0.1,0.1,0.1,0.3,0.1,0.4c0,0.5-0.3,1.2-0.8,2C15.2,22.8,14.9,23.2,14.6,23.5z
	 M64.3,16.7c0-1.8-0.1-5.8-0.1-7.6c0-0.1,0-0.2,0-0.3L77,8.6l0.4,0.6l3.9,6.7L64.3,16.7z"/>
</svg>
